<svg id="Livello_1" data-name="Livello 1" xmlns="http://www.w3.org/2000/svg" viewBox="0 0 300 300"><defs><style>
  /* 3-Zone Color System */
  .zone-1 { fill: var(--color-zone-1, #ffce00); }
  .zone-2 { fill: var(--color-zone-2, #ffe000); }
  .zone-3 { fill: var(--color-zone-3, #ffe600); }
  .zone-1-stroke { fill: none; stroke: var(--color-zone-1, #ffce00); stroke-miterlimit: 10; }
  .zone-3-stroke { fill: none; stroke: var(--color-zone-3, #ffe600); stroke-miterlimit: 10; }
</style></defs><!-- Zone 3: Lower part of "P" -->
<path class="zone-3" d="M286.5,117.1A68.91,68.91,0,0,1,217.6,183H187.1c7.4-13.4,17.4-24.2,31.8-30.1C243.5,142.8,266.3,134.4,286.5,117.1Z"/>
<path class="zone-3" d="M200.3,217.5,183.1,252l-12.7-21.2c3.5-14.3,7.5-28.5,13.3-41.1Z"/>
<line class="zone-3-stroke" x1="183.1" y1="252" x2="209" y2="200.2"/>

<!-- Zone 2: Center/Right part of "A" + Upper "P" -->
<path class="zone-2" d="M286.6,114c0,1,0,2.1-.1,3.1-20.3,17.3-43,25.7-67.6,35.8-14.4,5.9-24.4,16.7-31.8,30.1h-7.5l4,6.7c-5.8,12.5-9.9,26.8-13.3,41.1l-28.6-47.7a198.91,198.91,0,0,0-35.3,4.1c2.9-11.9,5.5-24.9,9.2-37.2,2-.2,4-.4,6-.5l-3.8-6.3c4.4-12.3,10.3-23.4,19.3-31l21.8,36.2H217c18.9,0,34.7-15,35.1-33.9a34.45,34.45,0,0,0-33.9-35.1H198.4c9.8-8.1,18.9-18.7,27.2-34A69.09,69.09,0,0,1,286.6,114Z"/>

<!-- Zone 1: Left part of "A" -->
<path class="zone-1" d="M115.6,150c-3.7,12.3-6.3,25.3-9.2,37.2C35.5,202.2,10.6,252,10.6,252,10.6,179.6,59.2,155.8,115.6,150Z"/>
<path class="zone-1" d="M137.2,112.2c-9.1,7.6-15,18.7-19.3,31L79.6,79.5,96.8,45Z"/>
<path class="zone-1" d="M225.5,45.4c-8.2,15.3-17.3,26-27.2,34H183A34.33,34.33,0,0,1,148.6,45h69A69.67,69.67,0,0,1,225.5,45.4Z"/>
<line class="zone-1-stroke" x1="96.8" y1="45" x2="36.5" y2="165.7"/></svg>